<svg width="1016" height="1125" viewBox="0 0 1016 1125" fill="none" xmlns="http://www.w3.org/2000/svg">
<path fill-rule="evenodd" clip-rule="evenodd" d="M551.449 115.626C580.993 120.901 610.969 126.254 642.955 136.459C643.545 136.652 644.179 136.858 644.856 137.078C690.245 151.846 928.508 229.366 999.789 511.126C1072.13 797.089 893.896 1043.09 633.34 1109.01C372.784 1174.92 86.2936 1029.27 15.8661 750.887C-54.5614 472.499 130.243 287.96 165.077 257.354C175.174 248.001 184.707 239.64 193.996 231.492C222.409 206.57 248.542 183.649 281.58 140.451C301.99 112.334 317.187 76.38 305.875 -1.02775e-05C356.571 36.6927 416.728 78.8581 455.98 93.0423C488.603 104.404 519.778 109.97 551.449 115.626ZM271.434 865.219C251.31 781.074 310.258 682.342 409.428 655.771C483.038 636.472 554.37 663.854 613.648 686.609C656.004 702.868 692.205 716.765 718.686 709.582C745.779 702.143 778.793 664.931 811.384 628.196L811.385 628.196C843.47 592.031 875.145 556.328 900.359 549.949C954.401 536.278 983.716 588.567 992.179 622.017C1000.64 655.467 1005.12 718.618 989.043 762.853C972.97 807.088 959.646 825.418 929.158 830.809C910.707 833.89 877.447 813.733 842.076 792.295C801.273 767.566 757.661 741.134 730.727 746.704C702.688 752.774 667.05 788.653 626.782 829.193C575.738 880.583 517.254 939.463 457.377 954.611C392.527 971.017 370.628 966.176 345.409 957.662C307.25 943.201 282.36 912.747 271.388 865.037L271.434 865.219ZM775.674 826.052C760.609 820.643 741.934 824.207 724.629 828.585L724.689 828.57C722.677 829.079 720.763 829.547 718.925 829.997C704.96 833.416 695.422 835.75 680.91 846.544C664.8 858.526 650.174 880.061 640.736 893.959L640.193 894.757C630.778 908.616 630.967 918.046 639.58 924.765C648.152 931.452 653.277 924.513 667.702 904.981L667.907 904.703C669.178 902.981 670.404 901.288 671.609 899.625C684.214 882.221 694.408 868.146 728.938 859.411C765.94 850.05 776.237 861.448 787.158 873.537C787.403 873.807 787.647 874.078 787.892 874.349L788.004 874.472C799.111 886.742 800.751 888.554 807.171 882.367C809.111 881.147 810.759 879.518 811.999 877.593C813.239 875.669 814.041 873.496 814.349 871.229C814.657 868.963 814.462 866.656 813.779 864.474C813.096 862.291 811.942 860.285 810.397 858.597L810.31 858.478C803.254 848.759 790.678 831.439 775.674 826.052ZM707.447 997.153C638.225 1014.67 602.243 1008.81 576.257 997.008L576.408 996.841C575.867 996.653 575.427 996.486 575.05 996.343C572.811 995.494 572.811 995.494 567.249 996.901C561.216 998.893 556.123 1003.03 552.937 1008.52C551.749 1010.36 550.953 1012.43 550.598 1014.59C550.244 1016.76 550.338 1018.97 550.876 1021.1C551.413 1023.22 552.383 1025.21 553.724 1026.95C555.065 1028.68 556.748 1030.12 558.671 1031.18C617.146 1062.36 695.257 1039.12 752.306 1018.95C792.262 1003.69 827.465 978.148 854.328 944.907C856.268 942.053 857.286 938.674 857.245 935.226C857.205 931.778 856.107 928.427 854.101 925.622C851.904 921.535 845.907 916.218 838.092 926.19C820.387 947.885 776.67 979.641 707.447 997.153Z" fill="url(#paint0_linear_94_789)" fill-opacity="0.548"/>
<defs>
<linearGradient id="paint0_linear_94_789" x1="2134" y1="-1160.48" x2="-96.7699" y2="-186.382" gradientUnits="userSpaceOnUse">
<stop/>
<stop offset="1" stop-color="white" stop-opacity="0"/>
</linearGradient>
</defs>
</svg>
