<svg width="290" height="256" viewBox="0 0 290 256" fill="none" xmlns="http://www.w3.org/2000/svg">
<g filter="url(#filter0_dd_94_668)">
<mask id="mask0_94_668" style="mask-type:alpha" maskUnits="userSpaceOnUse" x="17" y="9" width="256" height="186">
<path d="M131.95 138.355L164.451 130.614L156.71 98.1139L124.21 105.854L131.95 138.355Z" fill="#F9E050"/>
<path d="M64.9495 69.3913L97.4499 61.651L91.7891 37.882L59.2887 45.6223L64.9495 69.3913Z" fill="#F4F464"/>
<path d="M94.5796 87.6223L127.08 79.882L119.34 47.3816L86.8393 55.1219L94.5796 87.6223ZM22.8039 104.716L46.7345 99.0171L41.0352 75.0865L17.1046 80.7858L22.8039 104.716ZM76.3406 117.22L100.271 111.521L94.5719 87.5899L70.6413 93.2893L76.3406 117.22Z" fill="#F4F464"/>
<path d="M137.634 162.221L170.135 154.48L162.394 121.98L129.894 129.72L137.634 162.221Z" fill="#F9B038"/>
<path d="M132.746 179.651L173.784 169.877L168.084 145.946L127.047 155.72L132.746 179.651Z" fill="#F6842D"/>
<path d="M69.5244 194.708L93.455 189.009L87.7557 165.078L63.8251 170.777L69.5244 194.708Z" fill="#F9E050"/>
<path d="M114.852 66.5625L147.353 58.8222L139.651 26.4836L107.15 34.2238L114.852 66.5625Z" fill="#F6842D"/>
<path d="M87.7352 165.066L111.666 159.366L105.967 135.436L82.0359 141.135L87.7352 165.066Z" fill="#F4F464"/>
<path d="M144.336 84.8286L176.837 77.0883L169.096 44.588L136.596 52.3283L144.336 84.8286Z" fill="#F4AC2B"/>
<path d="M150.024 108.71L182.524 100.97L174.784 68.4696L142.283 76.2099L150.024 108.71Z" fill="#F6842D"/>
<path d="M155.735 132.689L188.235 124.949L180.495 92.4487L147.994 100.189L155.735 132.689Z" fill="#F4AC2B"/>
<path d="M161.419 156.556L193.919 148.816L186.179 116.316L153.678 124.056L161.419 156.556Z" fill="#F6842D"/>
<path d="M131.097 28.5211L136.757 52.29L160.526 46.6292L183.316 142.319L159.385 148.019L165.085 171.949L229.228 156.673C238.865 154.378 246.947 151.291 253.437 147.405C259.934 143.55 264.774 138.331 267.992 131.755C271.21 125.18 272.835 116.933 272.8 107.031C272.773 97.1615 271.026 85.019 267.584 70.5636C264.11 55.9789 260.273 44.3855 256.063 35.8198C251.798 27.0961 246.858 20.7033 241.247 16.6574C235.63 12.4156 228.806 10.078 221.768 9.98519C214.434 9.6815 205.876 10.6945 196.126 13.0166L154.846 22.848L131.097 28.5211ZM184.486 36.5318L199.96 32.8465C205.296 31.5757 210.067 31.0887 214.208 31.4011C218.498 31.5752 222.545 33.4359 225.47 36.5785C228.846 39.7044 231.869 44.5035 234.574 50.9843C237.425 57.4304 240.169 66.2257 242.826 77.3826C245.475 88.5071 246.974 97.6674 247.381 104.832C247.904 111.833 247.384 117.544 245.827 121.981C244.388 126.079 241.607 129.571 237.935 131.891C234.351 134.061 229.97 135.753 224.747 136.997L209.29 140.679L184.486 36.5318Z" fill="#F14D34"/>
<path d="M118.51 81.9236L142.441 76.2243L136.742 52.2937L112.811 57.993L118.51 81.9236Z" fill="#F9E050"/>
<path d="M117.369 183.313L141.3 177.613L135.6 153.683L111.67 159.382L117.369 183.313Z" fill="#F9B038"/>
<path d="M88.8804 63.6918L112.811 57.9925L107.15 34.2235L83.2196 39.9228L88.8804 63.6918Z" fill="#F9E050"/>
</mask>
<g mask="url(#mask0_94_668)">
<g filter="url(#filter1_d_94_668)">
<path d="M131.95 138.355L164.451 130.614L156.71 98.1139L124.21 105.854L131.95 138.355Z" fill="#F9E050"/>
<path d="M64.9495 69.3913L97.4499 61.651L91.7891 37.882L59.2887 45.6223L64.9495 69.3913Z" fill="#F4F464"/>
<path d="M94.5796 87.6223L127.08 79.882L119.34 47.3816L86.8393 55.1219L94.5796 87.6223ZM22.8039 104.716L46.7345 99.0171L41.0352 75.0865L17.1046 80.7858L22.8039 104.716ZM76.3406 117.22L100.271 111.521L94.5719 87.5899L70.6413 93.2893L76.3406 117.22Z" fill="#F4F464"/>
<path d="M137.634 162.221L170.135 154.48L162.394 121.98L129.894 129.72L137.634 162.221Z" fill="#F9B038"/>
<path d="M132.746 179.651L173.784 169.877L168.084 145.946L127.047 155.72L132.746 179.651Z" fill="#F6842D"/>
<path d="M69.5244 194.708L93.455 189.009L87.7557 165.078L63.8251 170.777L69.5244 194.708Z" fill="#F9E050"/>
<path d="M114.852 66.5625L147.353 58.8222L139.651 26.4836L107.15 34.2238L114.852 66.5625Z" fill="#F6842D"/>
<path d="M87.7352 165.066L111.666 159.366L105.967 135.436L82.0359 141.135L87.7352 165.066Z" fill="#F4F464"/>
<path d="M144.336 84.8286L176.837 77.0883L169.096 44.588L136.596 52.3283L144.336 84.8286Z" fill="#F4AC2B"/>
<path d="M150.024 108.71L182.524 100.97L174.784 68.4696L142.283 76.2099L150.024 108.71Z" fill="#F6842D"/>
<path d="M155.735 132.689L188.235 124.949L180.495 92.4487L147.994 100.189L155.735 132.689Z" fill="#F4AC2B"/>
<path d="M161.419 156.556L193.919 148.816L186.179 116.316L153.678 124.056L161.419 156.556Z" fill="#F6842D"/>
<path d="M131.097 28.5211L136.757 52.29L160.526 46.6292L183.316 142.319L159.385 148.019L165.085 171.949L229.228 156.673C238.865 154.378 246.947 151.291 253.437 147.405C259.934 143.55 264.774 138.331 267.992 131.755C271.21 125.18 272.835 116.933 272.8 107.031C272.773 97.1615 271.026 85.019 267.584 70.5636C264.11 55.9789 260.273 44.3855 256.063 35.8198C251.798 27.0961 246.858 20.7033 241.247 16.6574C235.63 12.4156 228.806 10.078 221.768 9.98519C214.434 9.6815 205.876 10.6945 196.126 13.0166L154.846 22.848L131.097 28.5211ZM184.486 36.5318L199.96 32.8465C205.296 31.5757 210.067 31.0887 214.208 31.4011C218.498 31.5752 222.545 33.4359 225.47 36.5785C228.846 39.7044 231.869 44.5035 234.574 50.9843C237.425 57.4304 240.169 66.2257 242.826 77.3826C245.475 88.5071 246.974 97.6674 247.381 104.832C247.904 111.833 247.384 117.544 245.827 121.981C244.388 126.079 241.607 129.571 237.935 131.891C234.351 134.061 229.97 135.753 224.747 136.997L209.29 140.679L184.486 36.5318Z" fill="#F14D34"/>
<path d="M118.51 81.9236L142.441 76.2243L136.742 52.2937L112.811 57.993L118.51 81.9236Z" fill="#F9E050"/>
<path d="M117.369 183.313L141.3 177.613L135.6 153.683L111.67 159.382L117.369 183.313Z" fill="#F9B038"/>
<path d="M88.8804 63.6918L112.811 57.9925L107.15 34.2235L83.2196 39.9228L88.8804 63.6918Z" fill="#F9E050"/>
</g>
<rect x="11.4398" y="57.0008" width="245.878" height="147.527" transform="rotate(-13.396 11.4398 57.0008)" fill="url(#paint0_linear_94_668)"/>
</g>
</g>
<defs>
<filter id="filter0_dd_94_668" x="-5.66469" y="0" width="307.701" height="261.698" filterUnits="userSpaceOnUse" color-interpolation-filters="sRGB">
<feFlood flood-opacity="0" result="BackgroundImageFix"/>
<feColorMatrix in="SourceAlpha" type="matrix" values="0 0 0 0 0 0 0 0 0 0 0 0 0 0 0 0 0 0 127 0" result="hardAlpha"/>
<feOffset dy="44.0975"/>
<feGaussianBlur stdDeviation="8.535"/>
<feColorMatrix type="matrix" values="0 0 0 0 0 0 0 0 0 0.0495833 0 0 0 0 0.145833 0 0 0 0.25 0"/>
<feBlend mode="normal" in2="BackgroundImageFix" result="effect1_dropShadow_94_668"/>
<feColorMatrix in="SourceAlpha" type="matrix" values="0 0 0 0 0 0 0 0 0 0 0 0 0 0 0 0 0 0 127 0" result="hardAlpha"/>
<feOffset dy="4.97875"/>
<feColorMatrix type="matrix" values="0 0 0 0 0.2375 0 0 0 0 0.136562 0 0 0 0 0.136562 0 0 0 1 0"/>
<feBlend mode="normal" in2="effect1_dropShadow_94_668" result="effect2_dropShadow_94_668"/>
<feBlend mode="normal" in="SourceGraphic" in2="effect2_dropShadow_94_668" result="shape"/>
</filter>
<filter id="filter1_d_94_668" x="5.92474e-05" y="9.93264" width="289.905" height="246.067" filterUnits="userSpaceOnUse" color-interpolation-filters="sRGB">
<feFlood flood-opacity="0" result="BackgroundImageFix"/>
<feColorMatrix in="SourceAlpha" type="matrix" values="0 0 0 0 0 0 0 0 0 0 0 0 0 0 0 0 0 0 127 0" result="hardAlpha"/>
<feOffset dy="44.0975"/>
<feGaussianBlur stdDeviation="8.535"/>
<feColorMatrix type="matrix" values="0 0 0 0 0 0 0 0 0 0.0495833 0 0 0 0 0.145833 0 0 0 0.25 0"/>
<feBlend mode="normal" in2="BackgroundImageFix" result="effect1_dropShadow_94_668"/>
<feBlend mode="normal" in="SourceGraphic" in2="effect1_dropShadow_94_668" result="shape"/>
</filter>
<linearGradient id="paint0_linear_94_668" x1="115.849" y1="-13.9118" x2="172.864" y2="163.191" gradientUnits="userSpaceOnUse">
<stop stop-color="white"/>
<stop offset="1" stop-color="white" stop-opacity="0"/>
</linearGradient>
</defs>
</svg>
